<?xml version="1.0" encoding="UTF-8" standalone="no"?>
<!-- Created with Inkscape (http://www.inkscape.org/) -->

<svg
   xmlns:dc="http://purl.org/dc/elements/1.1/"
   xmlns:cc="http://creativecommons.org/ns#"
   xmlns:rdf="http://www.w3.org/1999/02/22-rdf-syntax-ns#"
   xmlns:svg="http://www.w3.org/2000/svg"
   xmlns="http://www.w3.org/2000/svg"
   xmlns:sodipodi="http://sodipodi.sourceforge.net/DTD/sodipodi-0.dtd"
   xmlns:inkscape="http://www.inkscape.org/namespaces/inkscape"
   width="942.40283mm"
   height="942.40283mm"
   viewBox="0 0 942.40283 942.40283"
   version="1.1"
   id="svg8"
   inkscape:version="0.92.3 (2405546, 2018-03-11)"
   sodipodi:docname="drawingfinal.svg">
  <defs
     id="defs2" />
  <sodipodi:namedview
     id="base"
     pagecolor="#ffffff"
     bordercolor="#666666"
     borderopacity="1.0"
     inkscape:pageopacity="0.0"
     inkscape:pageshadow="2"
     inkscape:zoom="0.26687501"
     inkscape:cx="1705.3312"
     inkscape:cy="1702.5731"
     inkscape:document-units="mm"
     inkscape:current-layer="g1045"
     showgrid="false"
     inkscape:window-width="1920"
     inkscape:window-height="1025"
     inkscape:window-x="0"
     inkscape:window-y="27"
     inkscape:window-maximized="1" />
  <metadata
     id="metadata5">
    <rdf:RDF>
      <cc:Work
         rdf:about="">
        <dc:format>image/svg+xml</dc:format>
        <dc:type
           rdf:resource="http://purl.org/dc/dcmitype/StillImage" />
        <dc:title></dc:title>
      </cc:Work>
    </rdf:RDF>
  </metadata>
  <g
     style="display:inline"
     transform="translate(290.52722,632.03412)"
     inkscape:label="fond group"
     id="g1045"
     inkscape:groupmode="layer">
    <g
       id="g1052"
       style="fill:#000000;fill-opacity:1"
       inkscape:label="fond">
      <path
         style="display:inline;fill:#000000;fill-opacity:1;stroke:none;stroke-width:2.10398793;stroke-miterlimit:4;stroke-dasharray:none;stroke-opacity:1"
         d="m 1787.4844,2437.3926 a 486.13584,486.13584 0 0 0 -486.1348,486.1347 486.13584,486.13584 0 0 0 486.1348,486.1368 486.13584,486.13584 0 0 0 486.1367,-486.1368 486.13584,486.13584 0 0 0 -486.1367,-486.1347 z m 1.6543,121.0117 c 31.3109,0 59.4573,4.1628 84.4394,12.4902 25.3152,8.3274 46.8011,20.3192 64.4551,35.9746 17.654,15.3224 31.144,33.9748 40.4707,55.959 9.6597,21.6512 14.4902,45.8017 14.4902,72.4492 0,25.3153 -3.4971,47.2999 -10.4921,65.9532 -6.995,18.3202 -15.8234,34.3079 -26.4825,47.9648 -10.659,13.6569 -22.4839,25.4818 -35.4746,35.4746 -12.6576,9.9929 -24.8143,19.32 -36.4726,27.9805 -11.3253,8.3274 -21.3181,16.6551 -29.9785,24.9824 -8.3274,8.3274 -13.6586,17.6526 -15.9903,27.9785 l -13.9883,69.9512 h -105.9257 l -10.9922,-80.4434 c -2.6648,-16.3216 -0.9977,-30.4773 4.998,-42.4687 5.9957,-12.3245 14.1565,-23.3168 24.4824,-32.9766 10.6591,-9.9928 22.4839,-19.32 35.4746,-27.9804 12.9907,-8.9936 25.1475,-18.4857 36.4727,-28.4786 11.3252,-10.3259 20.8193,-21.652 28.4805,-33.9765 7.9942,-12.6576 11.9902,-27.6478 11.9902,-44.9688 0,-19.9857 -6.6606,-35.8065 -19.9844,-47.4648 -12.9907,-11.9914 -30.9774,-17.9883 -53.9609,-17.9883 -17.654,0 -32.4774,1.8321 -44.4688,5.4961 -11.6583,3.6641 -21.818,7.8289 -30.4785,12.4922 -8.3274,4.3302 -15.6556,8.3262 -21.9843,11.9902 -6.3289,3.6641 -12.6576,5.4961 -18.9864,5.4961 -14.3231,0 -24.9815,-6.1618 -31.9765,-18.4863 l -40.9707,-62.9551 c 12.3245,-10.3259 25.6476,-19.9849 39.9707,-28.9785 14.6561,-8.9936 30.312,-16.8205 46.9668,-23.4824 16.6547,-6.995 34.4745,-12.3262 53.4609,-15.9903 19.3195,-3.9971 40.1377,-5.9941 62.4551,-5.9941 z m -22.9825,572.0898 c 12.3246,0 23.8156,2.3308 34.4747,6.9942 10.659,4.3302 19.9862,10.3271 27.9804,17.9883 7.9943,7.6611 14.1561,16.6545 18.4864,26.9804 4.6633,10.326 6.996,21.4852 6.9961,33.4766 -1e-4,11.9914 -2.3328,23.3156 -6.9961,33.9746 -4.3303,10.3259 -10.4921,19.3193 -18.4864,26.9805 -7.9942,7.6611 -17.3214,13.658 -27.9804,17.9883 -10.6591,4.3302 -22.1501,6.4941 -34.4747,6.4941 -12.6575,0 -24.3155,-2.1639 -34.9746,-6.4941 -10.659,-4.3303 -19.9861,-10.3272 -27.9804,-17.9883 -7.6612,-7.6612 -13.823,-16.6546 -18.4864,-26.9805 -4.3302,-10.659 -6.496,-21.9832 -6.496,-33.9746 0,-11.9914 2.1658,-23.1506 6.496,-33.4766 4.6634,-10.3259 10.8252,-19.3193 18.4864,-26.9804 7.9943,-7.6612 17.3214,-13.6581 27.9804,-17.9883 10.6591,-4.6634 22.3171,-6.9942 34.9746,-6.9942 z"
         transform="matrix(0.26458333,0,0,0.26458333,-290.52722,-632.03412)"
         id="circle1035"
         inkscape:connector-curvature="0"
         inkscape:label="interrogation" />
      <path
         style="fill:#000000;fill-opacity:1;stroke:none;stroke-width:2.10398793;stroke-miterlimit:4;stroke-dasharray:none;stroke-opacity:1"
         d="m 2879.0801,1560.1367 a 486.13584,486.13584 0 0 0 -486.1348,486.1367 486.13584,486.13584 0 0 0 486.1348,486.1348 486.13584,486.13584 0 0 0 486.1367,-486.1348 486.13584,486.13584 0 0 0 -486.1367,-486.1367 z m -79.2227,111.6445 h 144.8965 v 285.795 c 0,30.6447 -1.832,61.1219 -5.4961,91.4336 -3.664,29.9785 -8.4945,60.6246 -14.4902,91.9355 h -104.9238 c -5.9957,-31.3109 -10.8262,-61.957 -14.4903,-91.9355 -3.664,-30.3117 -5.4961,-60.7889 -5.4961,-91.4336 z m 70.9492,564.0958 c 12.3246,0 23.8176,2.3308 34.4766,6.9941 10.659,4.3302 19.9842,10.3271 27.9785,17.9883 7.9943,7.6612 14.1561,16.6545 18.4863,26.9804 4.6634,10.326 6.9961,21.4852 6.9961,33.4766 0,11.9914 -2.3327,23.3156 -6.9961,33.9746 -4.3302,10.326 -10.492,19.3193 -18.4863,26.9805 -7.9943,7.6612 -17.3195,13.658 -27.9785,17.9883 -10.659,4.3302 -22.152,6.4941 -34.4766,6.4941 -12.6576,0 -24.3155,-2.1639 -34.9746,-6.4941 -10.659,-4.3303 -19.9862,-10.3271 -27.9804,-17.9883 -7.6612,-7.6612 -13.823,-16.6545 -18.4864,-26.9805 -4.3302,-10.659 -6.4961,-21.9832 -6.4961,-33.9746 0,-11.9914 2.1659,-23.1506 6.4961,-33.4766 4.6634,-10.3259 10.8252,-19.3192 18.4864,-26.9804 7.9942,-7.6612 17.3214,-13.6581 27.9804,-17.9883 10.6591,-4.6633 22.317,-6.9941 34.9746,-6.9941 z"
         transform="matrix(0.26458333,0,0,0.26458333,-290.52722,-632.03412)"
         id="circle1037"
         inkscape:connector-curvature="0"
         inkscape:label="exclamation" />
      <path
         style="display:inline;fill:#000000;fill-opacity:1;stroke:none;stroke-width:0.26458332px;stroke-linecap:butt;stroke-linejoin:miter;stroke-opacity:1"
         d="M 84.436981,-54.053529 115.02942,43.304868 174.14727,24.494647 143.96823,-70.383281 Z"
         id="path1041"
         inkscape:connector-curvature="0"
         sodipodi:nodetypes="ccccc"
         inkscape:label="branche2" />
      <path
         style="display:inline;fill:#000000;fill-opacity:1;stroke:none;stroke-width:0.26458332px;stroke-linecap:butt;stroke-linejoin:miter;stroke-opacity:1"
         d="m 255.12292,-164.11378 94.31064,50.54729 25.43785,-56.07767 -90.23196,-47.3847 z"
         id="path1043"
         inkscape:connector-curvature="0"
         sodipodi:nodetypes="ccccc"
         inkscape:label="branche1" />
      <path
         style="display:inline;fill:#000000;fill-opacity:1;stroke:none;stroke-width:2.31183791;stroke-miterlimit:4;stroke-dasharray:none;stroke-opacity:1"
         d="m 1237.2676,187.9082 a 1014.2563,1014.2563 0 0 0 -1014.25588,1014.2559 1014.2563,1014.2563 0 0 0 76.39062,384.1933 c 44.54105,-19.0165 110.30907,-46.9663 133.73438,-56.1328 39.84378,-16.4061 146.45703,-51.7754 146.45703,-51.7754 31.67656,-10.2579 142.84948,-41.8557 296.69727,-83.8008 33.88335,-9.239 70.39108,-13.289 107.34179,-13.289 88.63099,0.01 181.70299,23.3095 257.95899,54.1836 104.1578,42.1509 203.7692,65.3156 178.0742,137.2636 -5.5592,15.5585 -29.321,20.7696 -60.3535,20.7696 -63.0628,0 -156.1179,-21.5332 -187.1504,-21.5332 -15.4529,0 -15.5326,5.3361 11.1074,21.3222 53.771,32.2626 129.9102,50.3985 212.3907,50.3985 101.46,0 212.5037,-27.4592 303.2148,-89.8145 49.6213,-34.1104 88.6667,-46.9922 117.6719,-46.9922 67.1226,0 80.4585,68.9874 46.7441,103.5254 -70.2216,71.9375 -328.9405,282.6432 -477.9629,318.6172 -18.3143,4.4189 -40.3342,6.3574 -64.9258,6.3574 -175.5779,0 -485.67629,-98.8632 -562.31246,-98.8632 -41.76026,0 -115.14297,22.3268 -178.49609,45.625 l -38.1875,13.9941 c -11.68466,5.2859 -21.64761,10.2593 -29.68164,14.4922 A 1014.2563,1014.2563 0 0 0 1237.2676,2216.4199 1014.2563,1014.2563 0 0 0 2251.5234,1202.1641 1014.2563,1014.2563 0 0 0 1237.2676,187.9082 Z m -5.8711,184.33594 644.1113,718.73636 H 1756.082 L 1232.4473,505.88281 702.91016,1090.9805 h -121.125 L 769.64258,881.4668 V 547.19922 h 195.33789 v 118.43359 z m -1.0567,259.90625 463.2012,517.58011 v 307.4902 c -10.5588,7.7555 -28.5919,16.7926 -43.6172,27.1191 -41.586,28.5934 -89.6446,49.5846 -142.0429,61.9649 -1.3569,-43.0537 -23.9789,-82.3063 -65.1426,-112.209 -21.7143,-15.7749 -44.8449,-28.3186 -76.5215,-39.9492 v -197.5781 h -269.25 v 110.705 c -36.956,-6.7893 -77.4384,-10.3789 -114.21485,-10.3789 -46.16859,0 -90.08947,5.47 -129.66406,16.2559 -33.46101,9.1228 -62.32734,17.7532 -94.00391,25.7832 v -186.084 z"
         transform="matrix(0.26458333,0,0,0.26458333,-290.52722,-632.03412)"
         id="path2223"
         inkscape:connector-curvature="0"
         inkscape:label="main" />
    </g>
  </g>
</svg>
